<?xml version="1.0" standalone="no"?>
<!DOCTYPE svg PUBLIC "-//W3C//DTD SVG 20010904//EN"
 "http://www.w3.org/TR/2001/REC-SVG-20010904/DTD/svg10.dtd">
<svg version="1.0" xmlns="http://www.w3.org/2000/svg"
 width="512.000000pt" height="512.000000pt" viewBox="0 0 512.000000 512.000000"
 preserveAspectRatio="xMidYMid meet">
<metadata>
Created by potrace 1.14, written by Peter Selinger 2001-2017
</metadata>
<g transform="translate(0.000000,512.000000) scale(0.100000,-0.100000)"
fill="#000000" stroke="none">
<path d="M0 4583 l0 -536 60 -63 60 -62 0 -254 c0 -140 4 -258 8 -264 5 -5 -2
-29 -15 -54 -12 -25 -23 -40 -24 -35 -1 6 -3 32 -4 58 -2 40 0 46 11 36 8 -7
14 -7 14 -2 0 6 -24 29 -52 51 l-53 41 -3 -216 c-2 -163 1 -219 10 -231 10
-12 10 -14 1 -8 -10 6 -13 -109 -13 -562 0 -561 0 -570 20 -575 19 -5 20 0 21
81 0 48 0 106 -1 129 -2 66 14 77 21 13 l6 -55 1 52 c2 45 4 51 21 46 15 -4
18 -15 19 -66 0 -61 -1 -61 -8 -17 -4 25 -5 51 -2 59 3 9 1 12 -6 7 -7 -4 -12
-29 -12 -57 0 -27 -5 -49 -10 -49 -7 0 -10 -27 -8 -72 3 -64 5 -73 23 -76 11
-2 27 -6 35 -9 15 -6 24 -7 95 -12 22 -2 32 -5 22 -8 -15 -4 -17 -19 -17 -141
0 -75 -4 -142 -8 -149 -4 -6 -19 -14 -34 -18 -19 -5 -29 -2 -37 12 -9 16 -10
16 -11 1 0 -11 -7 -16 -18 -14 -9 2 -26 0 -37 -5 -14 -5 -6 -8 30 -8 28 -1 80
-4 118 -8 l67 -6 0 122 0 121 33 0 c69 0 77 -7 77 -66 0 -52 1 -54 28 -55 15
-1 34 -2 42 -3 8 -2 23 -3 33 -4 16 -2 18 -10 15 -62 -3 -55 -1 -60 18 -60 18
0 21 -7 23 -50 2 -44 0 -50 -19 -50 -16 0 -20 6 -20 31 0 24 -3 30 -16 25 -9
-3 -22 -6 -29 -6 -8 0 -15 -12 -17 -27 -2 -17 -10 -29 -21 -31 -13 -3 -17 3
-17 27 0 24 -4 31 -19 31 -11 0 -23 -5 -26 -10 -4 -6 -11 -8 -16 -5 -5 4 -9
-7 -9 -23 0 -26 -4 -30 -25 -28 -20 1 -25 6 -25 29 0 15 -3 27 -7 27 -9 0 -63
-62 -63 -72 0 -5 -9 -8 -19 -8 -11 0 -23 -4 -26 -10 -3 -5 -30 -10 -58 -10
-29 0 -69 -3 -89 -6 l-38 -7 0 -678 0 -679 1120 0 c1010 0 1120 2 1120 16 0
15 48 86 62 92 5 2 8 12 8 23 0 10 4 19 9 19 8 0 9 49 1 58 -1 1 -3 6 -4 12 0
5 -8 18 -17 29 -21 24 -34 96 -20 106 6 3 11 15 11 26 0 11 7 19 17 19 16 0
16 1 0 13 -9 6 -15 21 -13 32 2 11 -2 23 -8 27 -7 5 -4 8 7 8 17 0 17 1 0 30
-9 17 -24 30 -33 30 -13 0 -13 1 0 10 11 7 7 10 -17 10 -26 0 -33 4 -33 20 0
14 -7 20 -22 21 -18 1 -19 2 -5 6 27 7 15 28 -19 31 -34 3 -107 -24 -100 -37
3 -5 -1 -15 -10 -22 -13 -10 -17 -10 -25 2 -5 8 -9 10 -9 6 0 -18 -30 23 -30
42 0 11 -4 23 -10 26 -5 3 -10 15 -10 26 0 10 -6 19 -12 19 -9 0 -8 4 2 10 13
8 13 10 -2 10 -11 0 -15 5 -12 15 4 9 0 15 -10 15 -9 0 -16 -8 -16 -20 0 -11
-4 -20 -9 -20 -5 0 -11 -9 -14 -20 -3 -14 -14 -20 -31 -20 -14 0 -26 -4 -26
-10 0 -5 -5 -10 -11 -10 -5 0 -7 6 -4 13 4 6 0 4 -8 -5 -8 -10 -17 -15 -21
-11 -4 4 -4 0 0 -10 11 -30 -33 -20 -56 13 -12 17 -19 30 -16 30 3 0 -1 20 -8
45 -8 24 -13 65 -11 90 1 28 -2 45 -9 45 -7 0 -6 4 2 9 10 6 11 19 6 45 l-6
37 -42 -7 c-22 -3 -43 -10 -46 -14 -3 -4 -16 -11 -30 -15 -36 -11 -55 -35 -58
-75 -2 -19 -7 -36 -12 -38 -13 -5 -13 -39 -1 -46 9 -6 9 -27 -2 -81 -3 -16 -9
-66 -12 -110 -5 -63 -12 -87 -31 -112 -22 -29 -27 -31 -44 -20 -11 6 -20 22
-20 34 0 12 -4 24 -8 27 -5 3 -9 26 -11 52 -3 56 -7 65 -26 57 -9 -3 -16 1
-16 8 -1 8 -3 25 -6 39 -3 21 -7 76 -12 210 0 13 3 28 9 34 6 6 8 194 6 500
-2 270 -2 471 0 446 11 -127 16 -150 30 -150 8 0 14 -10 14 -25 0 -17 5 -25
18 -25 33 0 62 12 62 26 0 8 9 14 20 14 13 0 20 -7 20 -20 0 -11 5 -20 10 -20
6 0 10 -9 10 -20 0 -13 -7 -20 -20 -20 -15 0 -20 -7 -20 -25 0 -24 3 -25 58
-27 31 -1 65 -2 74 -2 10 0 16 -7 15 -18 -1 -10 -7 -18 -14 -18 -7 0 -13 -4
-13 -8 0 -9 -132 -30 -214 -35 l-49 -2 6 -125 c4 -73 10 -126 16 -128 6 -2 11
-19 11 -39 0 -19 7 -41 15 -50 14 -14 14 -17 0 -33 -11 -12 -15 -32 -13 -61
l3 -44 158 2 c102 2 156 -1 152 -7 -3 -6 1 -10 10 -10 11 0 15 5 11 15 -3 9 1
18 9 21 8 4 15 19 15 34 0 16 5 32 11 36 6 3 9 15 6 25 -3 11 -1 19 4 19 5 0
9 -9 9 -20 0 -11 7 -20 16 -20 8 0 13 4 9 9 -3 5 -1 12 5 16 5 3 10 -1 10 -9
0 -25 107 -20 113 5 3 10 2 21 -1 24 -3 3 -8 17 -9 30 -3 18 1 25 14 26 10 1
23 2 28 4 6 1 15 3 22 3 6 1 14 15 18 32 4 17 13 30 22 30 12 0 14 12 11 60
-2 43 1 60 10 60 8 0 12 -17 12 -51 0 -48 1 -51 23 -45 12 3 25 6 30 6 4 0 7
30 7 66 0 48 3 65 13 61 6 -2 13 -12 13 -23 1 -10 2 -27 3 -36 1 -14 6 -16 24
-9 19 7 22 14 19 57 -3 47 -2 50 31 68 20 10 37 27 40 37 5 18 -2 19 -86 20
-95 1 -209 6 -287 13 -25 3 -50 5 -56 5 -17 1 -26 33 -14 45 8 8 12 4 16 -12
6 -22 26 -32 21 -11 -1 6 4 14 10 16 7 3 13 -2 13 -11 0 -23 36 -20 61 5 14
14 29 19 45 16 13 -2 24 0 24 4 0 16 18 9 23 -8 3 -11 5 -7 6 10 1 26 3 28 30
22 29 -6 29 -5 32 43 6 79 1 90 -26 56 -13 -16 -27 -26 -31 -22 -4 5 1 17 12
29 10 11 14 19 9 17 -6 -2 -11 1 -12 6 -1 5 -7 12 -14 16 -9 6 -8 12 5 25 15
16 18 15 37 -7 14 -16 19 -18 15 -6 -3 12 -1 15 10 11 7 -3 14 0 14 6 0 6 -5
11 -11 11 -5 0 -8 3 -5 8 2 4 -10 15 -27 25 -32 17 -32 17 -10 -2 25 -21 20
-35 -8 -20 -11 5 -19 19 -19 29 0 11 -6 20 -14 20 -8 0 -16 4 -18 8 -2 5 -70
46 -153 92 -82 46 -157 92 -167 102 -10 10 -18 15 -18 11 0 -4 -6 2 -14 13
-19 25 -15 27 20 10 29 -16 49 -12 24 4 -37 24 5 7 52 -21 29 -17 60 -34 68
-39 133 -78 306 -176 314 -178 6 -2 2 5 -9 15 -12 10 -24 26 -28 37 -5 12 -13
16 -24 12 -10 -4 -14 -4 -10 0 4 4 -11 18 -33 31 -22 14 -38 29 -35 34 4 5 0
15 -8 23 -10 10 -13 39 -10 117 2 56 5 105 8 107 2 2 12 -10 23 -27 10 -17 21
-28 24 -25 13 13 48 -51 49 -90 1 -23 4 -31 6 -18 2 12 8 22 12 22 12 0 31
-23 31 -38 0 -8 9 -25 20 -39 11 -14 20 -20 20 -13 0 7 7 10 15 6 9 -3 15 0
15 9 0 8 6 14 13 12 7 -1 12 7 11 20 0 12 3 20 8 17 20 -13 4 23 -49 104 -124
193 -143 222 -138 222 2 0 27 -33 54 -72 87 -129 122 -174 119 -153 -2 11 -6
22 -9 25 -4 3 -16 23 -27 46 -16 31 -19 50 -14 85 l7 44 6 -40 c5 -32 7 -24 9
40 1 44 2 84 1 88 -1 5 4 5 10 1 8 -5 10 -38 5 -114 -4 -59 -3 -115 1 -126 5
-12 10 8 13 60 3 51 10 81 17 84 9 2 13 -7 13 -27 0 -17 5 -31 10 -31 6 0 10
7 10 16 0 9 5 12 12 8 8 -5 9 -2 4 12 -5 10 -12 30 -16 44 -4 14 -18 50 -30
80 -27 68 -14 58 17 -13 28 -65 30 -50 3 20 -11 29 -17 60 -13 69 4 11 2 15
-4 11 -6 -4 -15 6 -21 21 -5 15 -18 50 -28 77 -11 28 -19 55 -20 60 0 6 -10
28 -21 50 -12 22 -24 67 -28 99 -7 55 -9 58 -22 40 -15 -18 -15 -18 -9 3 4 12
3 24 -3 27 -5 3 -12 24 -16 46 -4 22 -11 40 -15 40 -17 0 -29 74 -31 178 -1
56 -5 102 -10 102 -5 0 -9 -35 -9 -77 0 -72 -1 -76 -15 -56 -8 12 -16 34 -18
50 -2 15 -12 48 -24 73 -23 49 -33 91 -38 160 -4 66 -7 70 -14 20 l-6 -45 -19
39 c-15 32 -22 75 -26 171 0 6 -4 4 -9 -4 -5 -8 -7 -20 -4 -28 7 -17 -5 -17
-23 1 -30 30 -36 72 -35 221 1 82 0 147 -3 144 -3 -2 -6 -55 -7 -116 -2 -95
-4 -110 -15 -95 -16 21 -18 36 -3 26 6 -3 3 5 -6 20 -11 16 -15 35 -11 51 5
19 3 23 -9 19 -8 -4 -15 -1 -15 5 0 7 7 14 15 17 8 4 15 11 15 16 0 6 -7 8
-15 4 -8 -3 -15 -1 -15 4 0 6 -7 10 -15 10 -26 0 -4 30 24 31 25 1 25 1 3 8
-13 3 -30 17 -39 31 -8 14 -12 17 -9 7 4 -12 2 -17 -6 -14 -8 2 -12 18 -11 37
1 20 -2 28 -7 21 -6 -10 -9 -10 -15 -1 -4 7 -1 16 6 21 13 8 6 13 -13 10 -4 0
-4 7 -1 16 4 10 2 14 -4 10 -12 -7 -12 41 -1 59 11 17 -2 53 -18 47 -9 -3 -14
1 -14 12 0 11 5 15 15 11 8 -3 15 -1 15 4 0 11 -11 13 -34 4 -9 -3 -13 -11 -9
-18 3 -6 1 -6 -8 2 -9 9 -10 15 -2 23 6 6 9 18 6 25 -3 8 0 14 6 14 16 0 13
27 -4 34 -9 3 -15 19 -16 43 l-1 38 -9 -33 c-6 -19 -14 -30 -20 -26 -8 5 -8 9
0 14 7 3 9 14 5 23 -3 9 -2 18 2 18 5 1 22 3 38 5 40 4 46 14 8 14 -18 0 -32
5 -32 10 0 6 -7 10 -16 10 -8 0 -13 -4 -10 -9 3 -5 -2 -12 -11 -15 -16 -6 -38
13 -27 23 3 3 9 -1 14 -9 9 -13 10 -13 10 0 0 33 -13 58 -31 63 -10 3 -19 14
-19 24 0 11 -7 28 -15 39 -8 10 -14 26 -14 34 0 10 2 11 6 3 9 -24 22 -13 21
20 -1 17 -3 26 -5 20 -3 -7 -11 -13 -19 -13 -10 0 -13 11 -9 45 3 28 1 44 -5
40 -6 -3 -10 -13 -10 -21 0 -8 -4 -12 -10 -9 -5 3 -10 17 -10 31 0 13 -4 24
-10 24 -5 0 -6 -7 -3 -17 4 -11 3 -14 -5 -9 -15 9 -17 -103 -3 -152 6 -19 6
-30 1 -27 -6 4 -11 -89 -13 -227 -2 -190 -3 -170 -5 114 -1 190 2 348 7 350 4
2 12 14 16 27 5 17 4 22 -6 19 -8 -3 -13 -12 -11 -22 2 -9 -2 -16 -8 -16 -5 0
-10 8 -10 19 0 10 -7 35 -16 56 -8 20 -13 42 -11 48 3 7 9 -4 14 -23 6 -23 16
-36 29 -38 17 -2 19 2 16 43 -3 35 -8 45 -18 41 -8 -3 -14 1 -14 9 0 20 -10
19 -26 -2 -13 -17 -14 -17 -8 0 3 9 1 17 -5 17 -6 0 -11 5 -11 10 0 6 10 8 24
4 24 -6 24 -5 25 80 l1 86 -34 0 c-30 0 -33 -3 -28 -22 4 -17 2 -20 -11 -15
-9 3 -18 1 -21 -6 -3 -7 -3 0 0 16 l6 27 -141 0 -141 0 0 -320 c0 -176 -3
-320 -8 -320 -4 0 -16 16 -27 35 -16 30 -20 33 -28 20 -5 -9 -7 -28 -4 -41 2
-13 0 -24 -4 -24 -5 0 -9 30 -9 68 0 59 -5 73 -34 119 -18 29 -36 50 -39 47
-3 -4 -14 1 -23 11 -14 13 -15 21 -6 35 7 12 9 72 6 181 -2 90 -4 170 -4 177
0 7 -15 12 -40 12 l-40 0 -1 -142 c0 -155 -4 -227 -13 -236 -3 -3 -6 80 -6
185 l0 191 -185 1 -185 1 30 -62 c31 -65 42 -85 68 -128 29 -49 -35 32 -90
113 l-52 77 -128 0 -128 0 0 -537z m564 445 c8 -47 0 -65 -9 -22 -3 16 -10 45
-15 64 -8 30 -7 33 4 17 8 -9 16 -36 20 -59z m499 -95 l57 -118 1 -150 c1 -82
5 -132 8 -110 l6 40 45 -80 45 -80 0 -260 c0 -187 -3 -266 -12 -280 -11 -18
-12 -14 -13 28 0 48 -16 91 -51 136 -15 18 -19 43 -20 110 -2 83 -2 84 -9 31
-5 -30 -5 -71 -2 -90 5 -32 4 -34 -11 -21 -11 8 -17 28 -17 53 0 21 -11 60
-24 86 -26 50 -57 94 -55 77 1 -5 1 -23 0 -40 -2 -42 -21 -12 -21 33 0 18 -5
43 -12 55 -9 19 -9 20 3 10 12 -10 14 38 11 338 -1 192 1 349 6 349 4 0 33
-53 65 -117z m194 85 c-3 -8 -6 -5 -6 6 -1 11 2 17 5 13 3 -3 4 -12 1 -19z
m30 -10 c-3 -8 -6 -5 -6 6 -1 11 2 17 5 13 3 -3 4 -12 1 -19z m-627 -430 c0
-32 4 -40 25 -48 20 -8 25 -16 23 -42 -1 -18 2 -41 6 -50 6 -13 3 -15 -11 -12
-17 5 -18 -7 -18 -235 0 -132 -3 -250 -7 -263 -3 -13 -6 115 -7 283 l-1 306
-26 39 c-14 21 -32 58 -40 82 l-13 45 35 -34 c27 -26 34 -41 34 -71z m17 40
c-3 -7 -5 -2 -5 12 0 14 2 19 5 13 2 -7 2 -19 0 -25z m13 -58 c0 -11 -2 -20
-4 -20 -2 0 -6 9 -9 20 -3 11 -1 20 4 20 5 0 9 -9 9 -20z m647 -633 c-2 -23
-3 -1 -3 48 0 50 1 68 3 42 2 -26 2 -67 0 -90z m69 48 c8 -21 32 -19 36 3 3
13 9 9 26 -18 20 -32 22 -49 23 -180 2 -149 1 -268 -1 -330 l-1 -35 -14 33
c-8 18 -19 31 -25 27 -6 -4 -8 -11 -5 -16 4 -5 1 -9 -4 -9 -15 0 -14 23 1 38
9 9 9 12 0 12 -7 0 -12 6 -10 13 3 18 -12 58 -33 88 -16 22 -18 49 -19 190 -1
90 -1 172 -1 182 1 21 19 23 27 2z m-938 -229 l102 -114 0 -277 0 -276 -26 20
c-15 11 -30 18 -35 15 -5 -3 -8 0 -7 8 2 7 -4 12 -13 12 -9 -1 -28 8 -41 20
-13 11 -17 17 -8 11 13 -9 13 -8 2 7 -8 9 -20 14 -28 11 -9 -3 -14 1 -14 13 0
9 -3 15 -6 11 -3 -3 -14 3 -25 14 -17 17 -19 35 -18 185 0 159 1 166 18 150
10 -9 21 -13 24 -9 11 10 8 61 -4 68 -6 4 -10 1 -8 -6 1 -8 1 -22 0 -33 -1
-15 -4 -16 -16 -6 -11 9 -15 32 -15 82 0 58 2 68 13 59 8 -6 17 -8 20 -4 4 3
7 1 7 -5 0 -7 5 -12 11 -12 16 0 5 25 -12 25 -31 1 -39 17 -39 81 0 35 4 64 8
64 4 0 54 -51 110 -114z m1231 -51 c0 -5 -6 1 -14 15 -8 14 -14 30 -14 35 0 6
6 -1 14 -15 8 -14 14 -29 14 -35z m-70 -99 l42 -79 -1 -204 c-1 -112 -5 -201
-10 -198 -5 3 -16 25 -25 50 -10 24 -22 42 -26 39 -5 -3 -7 -10 -4 -15 4 -5 2
-9 -3 -9 -16 0 -23 73 -28 300 -3 136 -2 211 4 205 5 -5 28 -46 51 -89z m-84
74 c-3 -5 -2 -10 3 -10 9 0 8 -377 -2 -387 -3 -4 -6 10 -6 31 0 21 -4 45 -10
55 -5 10 -11 87 -12 170 -3 140 -2 151 15 151 10 0 15 -4 12 -10z m219 -112
c26 -62 26 -83 1 -29 -27 57 -28 61 -19 61 3 0 11 -15 18 -32z m50 7 c3 -8 1
-15 -4 -15 -6 0 -10 7 -10 15 0 8 2 15 4 15 2 0 6 -7 10 -15z m-942 -128 l48
-58 0 -120 c0 -65 -2 -119 -4 -119 -2 0 -29 24 -60 53 l-55 52 -3 137 c-3 155
-7 152 74 55z m280 -59 l53 -61 6 -311 c4 -171 8 -316 9 -321 2 -6 12 -12 23
-12 31 -3 40 -18 45 -78 4 -50 3 -55 -16 -55 -11 0 -23 -6 -25 -12 -4 -8 -6
-7 -6 3 -1 9 -8 30 -16 45 l-15 29 0 -37 c0 -21 -4 -38 -10 -38 -5 0 -10 18
-10 40 0 34 -8 47 -24 38 -2 -2 -14 9 -26 25 -26 32 -37 34 -43 7 -4 -16 -4
-15 -3 3 0 14 -6 32 -14 43 -9 10 -10 15 -2 10 14 -8 13 -34 12 427 0 174 1
317 4 317 2 0 28 -28 58 -62z m328 22 c0 -5 -5 -10 -11 -10 -5 0 -7 5 -4 10 3
6 8 10 11 10 2 0 4 -4 4 -10z m278 -253 c-2 -114 -6 -161 -15 -169 -10 -8 -13
-5 -13 14 0 14 -3 28 -7 31 -3 4 -8 89 -10 190 l-3 182 25 -45 c24 -43 25 -52
23 -203z m-1597 216 c13 -16 12 -17 -3 -4 -10 7 -18 15 -18 17 0 8 8 3 21 -13z
m1359 3 c0 -3 -4 -8 -10 -11 -5 -3 -10 -1 -10 4 0 6 5 11 10 11 6 0 10 -2 10
-4z m-1274 -68 c4 -7 -9 1 -29 16 -20 16 -37 30 -37 33 0 7 58 -36 66 -49z
m1574 -265 c0 -169 -5 -187 -35 -116 -11 27 -15 77 -14 212 l0 176 25 -54 c22
-50 24 -65 24 -218z m-1476 191 c18 -17 22 -79 5 -89 -15 -10 -17 -6 -25 53
-7 56 -4 61 20 36z m493 -56 c5 -28 23 -50 23 -29 0 16 21 13 42 -6 16 -14 18
-33 18 -166 l0 -151 28 -25 c25 -23 28 -30 22 -66 l-7 -40 -2 41 c-1 30 -8 47
-29 67 -16 15 -31 24 -35 20 -4 -3 -7 -1 -7 6 0 7 -24 35 -52 63 l-53 52 -4
149 -3 149 26 -18 c15 -9 30 -30 33 -46z m1029 -33 c13 -32 33 -254 34 -373 0
-36 -2 -41 -14 -30 -8 7 -12 16 -9 21 2 4 -1 7 -6 7 -6 0 -11 9 -11 19 0 11
-4 23 -10 26 -10 6 -15 365 -4 365 3 0 12 -16 20 -35z m-1379 -37 c-3 -8 -6
-5 -6 6 -1 11 2 17 5 13 3 -3 4 -12 1 -19z m1510 0 c-3 -8 -6 -5 -6 6 -1 11 2
17 5 13 3 -3 4 -12 1 -19z m-547 -70 l31 -42 -2 -287 c-1 -242 -3 -288 -15
-293 -8 -3 -13 -2 -10 3 3 4 -5 18 -17 29 -22 21 -22 25 -25 327 -1 168 0 305
3 305 3 0 19 -19 35 -42z m-1220 -104 c0 -2 -9 0 -20 6 -11 6 -20 13 -20 16 0
2 9 0 20 -6 11 -6 20 -13 20 -16z m65 -42 c-3 -3 -11 0 -18 7 -9 10 -8 11 6 5
10 -3 15 -9 12 -12z m1245 -64 l35 -43 -2 -225 c-2 -265 -1 -249 -14 -227 -5
9 -14 17 -19 17 -5 0 -11 -8 -13 -17 -3 -13 -5 -12 -6 5 0 13 -5 31 -10 41
-10 18 -20 491 -11 491 3 0 21 -19 40 -42z m495 -41 c9 -55 11 -327 1 -327 -4
0 -6 6 -3 14 3 8 -3 26 -15 41 -14 19 -19 34 -14 56 3 17 1 29 -5 29 -6 0 -8
4 -5 8 3 4 6 53 7 108 1 54 3 102 6 107 8 14 22 -4 28 -36z m-979 -69 c4 -7 3
-8 -4 -4 -8 5 -13 -4 -14 -26 l-1 -33 -4 35 c-3 19 -14 46 -26 59 l-22 25 32
-23 c18 -12 35 -27 39 -33z m929 -43 c0 -46 -4 -70 -13 -73 -15 -5 -33 39 -21
53 4 6 4 17 -1 25 -8 12 -10 11 -10 -5 -1 -29 -17 0 -23 42 -6 40 -4 42 36 34
l32 -7 0 -69z m100 -165 c6 -97 5 -113 -6 -102 -10 9 -15 48 -17 130 -3 151
14 130 23 -28z m-1280 82 c-3 -3 -11 0 -18 7 -9 10 -8 11 6 5 10 -3 15 -9 12
-12z m355 -7 c0 -9 -6 -12 -16 -8 -13 5 -13 7 -2 14 17 11 18 11 18 -6z m1040
-39 c0 -18 -17 8 -24 34 l-7 25 15 -25 c9 -14 15 -29 16 -34z m-554 -33 c14
-23 17 -46 15 -126 -1 -55 -6 -109 -11 -121 -5 -11 -9 -15 -9 -8 -1 6 -6 11
-13 10 -9 -2 -13 35 -16 135 -2 83 0 137 6 137 5 0 18 -12 28 -27z m61 -5 c22
-20 23 -28 23 -161 l0 -139 -24 16 c-23 14 -25 14 -28 -1 -2 -9 -3 56 -3 145
0 89 2 162 4 162 3 0 15 -10 28 -22z m423 -86 c0 -58 -4 -92 -9 -86 -17 17
-18 199 -1 189 6 -3 10 -49 10 -103z m-630 -59 c0 -20 -16 -8 -23 17 -4 17 -3
19 9 9 8 -6 14 -18 14 -26z m420 -73 c0 -20 5 -41 12 -48 9 -9 9 -12 0 -12 -7
0 -11 -24 -10 -75 1 -41 -2 -78 -6 -82 -4 -5 -16 3 -27 16 -17 20 -19 40 -19
154 l0 130 25 -23 c18 -17 25 -34 25 -60z m77 48 c-3 -8 -6 -5 -6 6 -1 11 2
17 5 13 3 -3 4 -12 1 -19z m-1822 -38 c3 -5 -1 -10 -10 -10 -9 0 -13 5 -10 10
3 6 8 10 10 10 2 0 7 -4 10 -10z m205 -81 c0 -5 -4 -9 -10 -9 -5 0 -10 7 -10
16 0 8 5 12 10 9 6 -3 10 -10 10 -16z m344 -104 c-4 -8 -11 -15 -16 -15 -6 0
-5 6 2 15 7 8 14 15 16 15 2 0 1 -7 -2 -15z m-34 -21 c0 -8 -4 -12 -10 -9 -5
3 -10 10 -10 16 0 5 5 9 10 9 6 0 10 -7 10 -16z m-502 -101 c-1 -68 -3 -80 -5
-40 -3 46 -7 58 -19 53 -10 -4 -14 1 -13 17 0 12 3 16 6 10 10 -25 23 -12 23
22 0 19 2 35 5 35 3 0 4 -44 3 -97z m642 93 c0 -3 -4 -8 -10 -11 -5 -3 -10 -1
-10 4 0 6 5 11 10 11 6 0 10 -2 10 -4z m-370 -10 c0 -3 -4 -8 -10 -11 -5 -3
-10 -1 -10 4 0 6 5 11 10 11 6 0 10 -2 10 -4z m1485 -16 c-3 -5 -12 -10 -18
-10 -7 0 -6 4 3 10 19 12 23 12 15 0z m-1249 -13 c3 -8 1 -32 -4 -55 -6 -24
-6 -39 -1 -36 5 3 10 -36 10 -88 1 -51 5 -106 8 -123 l8 -30 13 29 c14 28 15
28 79 22 35 -4 68 -9 73 -12 4 -3 9 -20 9 -37 1 -18 3 -24 6 -14 3 10 14 17
29 17 33 0 30 18 -3 23 -16 3 -5 4 22 3 l50 -1 3 -46 c3 -41 6 -47 28 -52 21
-4 24 -1 24 24 0 22 5 29 20 29 11 0 21 -6 22 -12 2 -22 5 -32 11 -48 3 -8 8
-31 9 -50 3 -29 8 -36 36 -44 17 -5 32 -15 32 -23 0 -8 -4 -11 -10 -8 -6 4
-10 -5 -10 -20 0 -17 -5 -25 -12 -22 -7 2 -12 15 -10 28 3 23 2 23 -13 5 -8
-11 -15 -23 -15 -28 0 -17 -19 -7 -26 15 l-8 22 -6 -25 c-7 -30 -40 -40 -41
-13 0 15 -2 14 -9 -4 -9 -22 -34 -31 -43 -15 -2 4 -2 1 -1 -5 2 -9 -8 -13 -29
-13 -18 0 -80 -5 -139 -12 l-108 -11 0 -114 0 -113 50 0 50 0 0 -61 c0 -65
-11 -84 -59 -106 -25 -11 -24 -11 9 -6 32 4 36 3 36 -19 0 -12 -5 -27 -10 -31
-6 -5 32 -6 84 -3 65 4 90 3 80 -4 -8 -5 -23 -10 -32 -10 -14 0 -18 -9 -18
-38 0 -22 -3 -73 -6 -115 -6 -66 -10 -77 -26 -77 -10 0 -21 -7 -24 -15 -4 -8
-12 -15 -20 -15 -7 0 -18 -9 -24 -20 -6 -11 -24 -27 -40 -35 -17 -9 -30 -20
-30 -26 0 -6 7 -6 21 1 11 6 44 13 73 16 46 3 57 1 80 -21 15 -14 32 -23 37
-20 5 3 6 -1 3 -10 -4 -9 0 -21 10 -28 19 -15 34 -77 18 -77 -6 0 -9 -6 -6
-13 6 -17 -43 -67 -67 -67 -10 0 -21 -5 -24 -10 -3 -6 -15 -10 -26 -10 -10 0
-19 -4 -19 -9 0 -5 -9 -13 -20 -16 -12 -4 -39 -24 -61 -45 -37 -35 -69 -44
-69 -18 0 5 -11 33 -24 61 -38 85 -53 182 -29 191 12 5 13 16 8 58 -4 28 -4
147 0 265 7 200 8 213 26 213 18 0 19 16 19 495 0 333 3 495 10 495 6 0 13 -6
16 -13z m-446 -87 c0 -53 -2 -60 -20 -60 -16 0 -20 7 -20 30 0 20 5 30 15 30
10 0 15 10 15 30 0 17 2 30 5 30 3 0 5 -27 5 -60z m1050 40 c0 -5 -5 -10 -11
-10 -5 0 -7 5 -4 10 3 6 8 10 11 10 2 0 4 -4 4 -10z m-1136 -66 c8 -21 8 -21
-9 -21 -8 0 -15 9 -15 19 0 22 16 24 24 2z m623 -36 c-3 -8 -6 -5 -6 6 -1 11
2 17 5 13 3 -3 4 -12 1 -19z m1070 -53 c20 -8 33 -18 30 -22 -9 -8 -97 17 -97
28 0 13 26 11 67 -6z m137 -45 c16 -16 2 -20 -37 -9 -46 13 -50 34 -5 25 18
-3 37 -11 42 -16z m-274 -226 c0 -8 -5 -12 -10 -9 -6 4 -8 11 -5 16 9 14 15
11 15 -7z m-1077 -55 c-5 -5 -7 7 -4 29 5 34 6 35 9 8 2 -16 0 -32 -5 -37z
m1037 51 c12 -8 11 -10 -7 -10 -13 0 -23 5 -23 10 0 13 11 13 30 0z m-470 -65
c0 -25 -14 -34 -24 -16 -8 12 3 41 15 41 5 0 9 -11 9 -25z m697 -102 c-3 -10
-5 -4 -5 12 0 17 2 24 5 18 2 -7 2 -21 0 -30z m180 11 c-3 -3 -12 -4 -19 -1
-8 3 -5 6 6 6 11 1 17 -2 13 -5z m-357 -35 c0 -5 -7 -9 -15 -9 -8 0 -15 7 -15
15 0 9 6 12 15 9 8 -4 15 -10 15 -15z m207 -146 c-2 -16 -4 -3 -4 27 0 30 2
43 4 28 2 -16 2 -40 0 -55z m-177 52 c0 -8 8 -15 18 -15 16 -1 16 -1 0 -14
-10 -7 -18 -23 -18 -34 0 -11 -4 -24 -10 -27 -6 -4 -10 15 -10 49 0 31 5 56
10 56 6 0 10 -7 10 -15z m-194 -77 c-3 -61 0 -87 10 -99 12 -13 9 -17 -21 -28
-19 -7 -35 -19 -35 -28 0 -10 -6 -13 -16 -9 -9 3 -24 6 -34 6 -11 0 -20 9 -23
23 -4 18 -4 17 -6 -6 0 -17 -5 -26 -12 -22 -6 4 -8 13 -5 21 3 8 -1 14 -10 14
-26 0 -9 25 19 28 23 3 26 9 32 55 8 72 4 107 -15 108 -29 2 35 17 78 18 l42
1 -4 -82z m161 36 c-3 -3 -12 -4 -19 -1 -8 3 -5 6 6 6 11 1 17 -2 13 -5z
m-1228 -171 c0 -60 -3 -101 -7 -93 -4 8 -14 15 -22 15 -8 0 -16 6 -16 13 -3
25 -6 27 -14 7 -8 -19 -9 -19 -9 -1 -1 13 -6 17 -21 13 -13 -3 -20 0 -20 9 0
8 5 14 11 14 8 0 8 4 1 13 -6 7 -8 31 -5 55 5 37 10 43 37 51 68 20 66 22 65
-96z m-112 45 c-3 -8 -6 -5 -6 6 -1 11 2 17 5 13 3 -3 4 -12 1 -19z m855 -68
c-2 -16 -6 -30 -8 -30 -2 0 -4 14 -4 30 0 17 4 30 8 30 5 0 7 -13 4 -30z
m-728 -290 c3 -41 2 -88 -3 -105 -9 -28 -9 -26 -10 19 -1 38 -4 47 -16 42 -8
-3 -15 -1 -15 4 0 6 7 10 15 10 11 0 15 12 15 46 0 46 -16 74 -43 74 -8 0 -21
18 -29 40 l-16 39 42 14 41 14 7 -61 c3 -34 9 -95 12 -136z m463 -12 c-3 -8
-6 -5 -6 6 -1 11 2 17 5 13 3 -3 4 -12 1 -19z"/>
<path d="M1121 4294 c0 -11 3 -14 6 -6 3 7 2 16 -1 19 -3 4 -6 -2 -5 -13z"/>
<path d="M682 4470 c0 -14 2 -19 5 -12 2 6 2 18 0 25 -3 6 -5 1 -5 -13z"/>
<path d="M1431 3584 c0 -11 3 -14 6 -6 3 7 2 16 -1 19 -3 4 -6 -2 -5 -13z"/>
<path d="M385 3757 c-4 -10 -5 -21 -1 -24 10 -10 18 4 13 24 -4 17 -4 17 -12
0z"/>
<path d="M393 3433 c3 -26 1 -30 -10 -21 -7 6 -16 9 -18 6 -3 -3 2 -11 10 -18
25 -21 40 1 26 37 l-11 28 3 -32z"/>
<path d="M462 3370 c0 -14 2 -19 5 -12 2 6 2 18 0 25 -3 6 -5 1 -5 -13z"/>
<path d="M840 1611 c0 -16 -3 -36 -6 -45 -5 -12 0 -16 20 -16 23 0 25 2 16 19
-5 11 -10 31 -10 45 0 14 -4 26 -10 26 -5 0 -10 -13 -10 -29z"/>
<path d="M1340 5027 c0 -53 4 -97 9 -97 10 0 8 176 -2 187 -4 3 -7 -37 -7 -90z"/>
<path d="M1486 5055 c18 -51 24 -86 24 -154 l0 -87 56 0 55 1 -2 45 c-4 93 1
180 10 180 5 0 12 -73 15 -162 16 -453 17 -470 31 -458 10 8 18 0 36 -37 19
-38 24 -66 26 -133 0 -47 5 -98 9 -115 7 -28 8 -29 13 -7 3 13 10 24 15 25 12
3 37 -71 38 -110 l0 -33 123 0 c116 0 124 1 138 23 8 12 56 67 105 122 50 55
89 101 87 103 -1 2 -56 7 -121 11 l-119 8 95 3 95 4 -70 6 -70 6 70 2 c39 1
87 5 108 8 36 7 37 7 17 24 -20 18 -26 31 -12 28 14 -3 83 14 77 20 -3 3 -24
9 -48 13 l-42 6 44 2 c43 1 43 1 37 32 -3 17 -6 53 -6 80 l0 49 -52 0 c-38 0
-49 3 -38 10 8 5 29 10 47 10 26 0 30 3 26 19 -3 13 1 21 14 24 10 3 -1 5 -24
6 -49 1 -70 21 -23 21 18 0 29 4 25 10 -3 6 -1 10 6 10 10 0 10 3 1 12 -7 7
-12 26 -11 42 1 30 1 30 9 6 l8 -25 1 28 c1 18 -4 27 -14 27 -8 0 -15 9 -15
20 0 32 -32 40 -157 40 -133 0 -198 19 -73 21 41 1 102 5 135 9 55 6 50 7 -55
10 -63 2 -103 5 -87 7 15 2 27 8 27 12 0 5 33 46 74 92 49 55 70 86 63 91 -7
4 -48 8 -92 9 -44 1 -109 5 -145 9 l-65 7 75 2 c41 1 109 8 150 16 69 12 44
13 -296 14 l-372 1 24 -65z"/>
<path d="M3025 5109 c17 -5 75 -12 130 -16 55 -3 101 -7 103 -8 2 -2 -54 -6
-125 -10 -70 -3 -141 -9 -157 -12 l-28 -5 54 -57 c30 -31 67 -72 83 -91 15
-19 39 -38 54 -41 14 -4 -16 -8 -69 -9 -83 -2 -89 -4 -50 -11 25 -4 83 -8 130
-9 121 -3 56 -17 -85 -19 -156 -2 -159 -4 -178 -133 -6 -37 -5 -38 24 -38 16
0 29 -4 29 -10 0 -5 -18 -10 -40 -10 l-41 0 23 -24 c13 -13 43 -29 68 -34 l45
-10 -70 -2 c-38 -1 -64 -4 -57 -7 18 -7 16 -112 -3 -119 -32 -13 -16 -34 28
-35 l42 -1 -38 -8 c-54 -10 -54 -16 0 -30 36 -10 42 -15 26 -17 -13 -3 -23 -9
-23 -14 0 -6 4 -8 9 -5 5 4 11 1 13 -5 2 -7 41 -15 93 -19 l90 -7 -65 -3 -65
-4 90 -6 c87 -6 88 -6 24 -8 -36 -1 -94 -5 -127 -8 l-61 -7 63 -68 c35 -38 83
-94 107 -124 l44 -54 115 -2 c87 -2 52 -5 -142 -13 -141 -6 -259 -14 -263 -18
-4 -3 -9 -28 -11 -54 -3 -26 -7 -51 -10 -56 -3 -4 12 -9 33 -9 31 -2 33 -3 10
-6 -16 -3 -30 -12 -33 -21 -3 -9 -10 -25 -15 -34 -8 -16 -4 -18 33 -18 32 0
39 -3 28 -10 -8 -5 -26 -10 -40 -10 -23 0 -25 -3 -25 -48 0 -27 6 -56 14 -66
13 -15 15 -15 34 1 19 18 20 17 8 -4 -13 -25 -5 -53 16 -53 8 0 12 -4 9 -9 -7
-11 27 -20 74 -22 28 0 31 -2 15 -9 -15 -6 -6 -9 35 -12 46 -4 41 -5 -27 -6
-73 -2 -82 -4 -76 -19 6 -15 4 -15 -14 -2 -27 19 -103 13 -103 -7 0 -18 17
-48 52 -95 27 -36 29 -37 100 -38 39 0 73 -3 75 -5 2 -2 -50 -7 -116 -11 -91
-5 -121 -11 -121 -21 0 -7 8 -18 18 -23 15 -9 14 -10 -8 -11 -23 0 -23 -1 15
-40 21 -22 48 -40 60 -40 11 0 28 -7 38 -15 17 -12 15 -14 -25 -19 -23 -3 -63
-7 -88 -9 l-45 -2 45 -49 45 -50 -40 29 c-38 27 -39 28 -17 4 12 -14 19 -29
15 -32 -3 -4 16 -8 43 -9 27 -1 56 -2 64 -4 8 -1 26 -3 40 -4 22 -2 -8 -8
-167 -36 -18 -4 -33 -9 -33 -13 0 -17 88 -91 108 -91 12 0 22 -4 22 -10 0 -5
-22 -10 -49 -10 -78 0 -95 -12 -36 -26 l50 -12 -65 -1 -64 -1 21 -22 c19 -19
24 -20 39 -7 15 12 15 10 -1 -15 l-19 -29 29 6 c17 3 24 4 18 1 -27 -12 -11
-23 35 -27 33 -2 24 -4 -30 -5 -59 -2 -78 -5 -78 -16 0 -15 23 -38 36 -35 17
4 44 -13 38 -23 -4 -5 4 -9 17 -8 41 4 55 -2 29 -10 -14 -4 -53 -8 -87 -9 -60
-1 -62 -2 -45 -19 15 -16 18 -16 29 -2 15 19 17 6 3 -21 -6 -11 -7 -19 -1 -19
5 0 12 7 15 16 5 13 9 14 21 4 11 -9 12 -16 5 -25 -7 -9 -2 -12 21 -13 56 -1
44 -12 -14 -12 -31 0 -57 -4 -57 -9 0 -14 26 -31 36 -23 5 4 6 3 2 -2 -12 -14
12 -36 38 -36 13 0 24 -3 24 -7 0 -5 -21 -7 -46 -6 -39 2 -44 0 -34 -13 8 -9
9 -14 2 -14 -6 0 -14 5 -17 10 -8 13 -25 13 -25 -1 0 -5 5 -7 10 -4 6 3 10 -1
10 -9 0 -12 8 -14 39 -10 23 3 42 1 46 -5 4 -7 -7 -11 -29 -11 -20 0 -36 -4
-36 -10 0 -5 -7 -7 -15 -4 -8 4 -15 1 -15 -4 0 -6 17 -14 38 -17 20 -3 44 -7
53 -9 9 -2 16 2 16 8 1 6 4 27 7 46 7 38 12 74 15 105 1 15 3 17 10 7 6 -9 14
3 26 40 18 53 22 71 25 118 l2 25 7 -25 7 -25 7 25 c3 14 7 55 8 93 2 69 19
96 19 30 0 -68 22 -19 31 69 8 82 27 157 28 114 1 -17 3 -16 19 5 27 34 34 69
42 194 l7 110 1 -95 c2 -90 3 -93 19 -77 14 14 19 41 23 127 4 85 9 113 22
126 25 25 27 12 30 -141 2 -91 6 -129 14 -128 7 1 10 -6 7 -18 -4 -15 -8 -17
-13 -8 -5 7 -8 -2 -8 -22 1 -38 -27 -109 -42 -109 -6 0 -10 -13 -10 -28 0 -15
-13 -59 -30 -97 -16 -39 -30 -80 -30 -93 0 -12 -5 -21 -12 -20 -7 2 -17 -17
-24 -43 -6 -25 -17 -56 -24 -69 -18 -33 -30 -80 -21 -80 4 0 16 18 26 40 10
22 20 38 22 36 2 -2 -10 -36 -28 -75 -31 -69 -51 -93 -29 -35 9 22 8 26 0 17
-7 -6 -14 -31 -15 -56 -2 -24 -17 -72 -34 -106 -18 -34 -29 -66 -26 -71 4 -6
2 -10 -2 -10 -5 0 -9 -9 -9 -19 0 -14 4 -17 12 -10 8 7 14 6 17 -3 3 -7 6 4 6
25 1 23 5 36 11 32 6 -4 8 -9 6 -13 -5 -9 20 -32 28 -25 3 4 6 17 6 29 0 13 8
27 17 33 13 7 17 25 19 78 2 105 3 110 13 94 10 -15 6 -169 -4 -202 -9 -28 2
-23 19 9 7 15 17 68 21 117 8 110 13 128 31 121 7 -3 13 -2 12 2 -1 4 1 27 5
51 8 44 21 46 29 6 3 -11 8 21 12 70 9 110 13 135 26 135 6 0 10 -31 10 -72 0
-101 7 -81 14 39 4 71 11 113 23 135 l18 33 2 -50 c8 -154 7 -263 -1 -262 -5
1 -14 -15 -21 -36 -12 -43 -24 -39 -26 7 -1 17 -5 4 -9 -29 -5 -44 -15 -72
-38 -103 -17 -24 -34 -58 -39 -75 l-7 -32 -7 45 -6 45 -2 -45 c-2 -51 -25
-108 -71 -175 -17 -25 -30 -50 -28 -56 4 -12 33 26 126 167 61 92 135 190 116
154 -7 -14 -99 -156 -232 -359 -34 -51 -62 -98 -62 -105 0 -6 5 -4 10 4 8 12
10 11 10 -6 0 -21 9 -23 68 -16 7 1 17 13 22 27 11 29 59 53 70 35 4 -7 10 7
13 31 6 44 47 102 47 66 0 -10 5 -15 11 -12 5 4 9 17 7 28 -1 12 1 28 5 35 20
30 27 5 27 -93 0 -103 1 -105 20 -95 16 8 20 8 20 -4 0 -8 -8 -17 -17 -20 -10
-3 -34 -22 -54 -41 -20 -19 -40 -31 -44 -27 -5 4 -6 0 -2 -10 4 -11 -6 -24
-35 -43 -22 -15 -37 -29 -35 -32 5 -4 210 105 307 163 43 26 114 57 135 60 24
2 53 10 78 19 9 4 17 5 17 2 0 -7 -237 -145 -349 -203 -51 -27 -96 -56 -98
-65 -3 -9 -22 -24 -44 -32 l-39 -15 0 -69 c0 -70 11 -96 37 -86 11 4 13 0 8
-20 -7 -27 11 -48 21 -23 5 13 12 12 50 -9 37 -21 44 -22 44 -8 0 14 2 14 19
-1 19 -17 20 -17 26 17 7 35 8 36 56 35 l49 0 0 -63 0 -63 -226 5 c-167 4
-225 2 -220 -6 4 -6 12 -9 17 -6 9 6 14 -14 11 -48 -2 -14 3 -17 18 -12 18 6
20 2 20 -48 0 -41 4 -56 16 -61 23 -9 24 -8 24 24 0 17 8 38 18 48 15 15 21
15 42 5 l24 -12 -28 -7 c-26 -6 -27 -9 -24 -63 3 -49 6 -56 26 -59 20 -3 22 1
22 41 0 27 6 49 15 57 12 10 14 2 17 -57 3 -66 4 -68 31 -71 30 -4 37 -28 10
-35 -19 -4 -20 -4 92 -29 49 -11 60 -18 65 -38 3 -13 11 -25 18 -28 9 -3 12
21 12 92 0 57 4 96 10 96 6 0 10 -45 10 -114 0 -95 3 -115 16 -120 12 -4 14
-14 9 -36 -6 -27 -4 -30 17 -30 44 -1 193 -10 261 -15 l67 -6 0 120 c0 81 4
121 12 123 6 2 9 10 7 16 -3 10 -8 10 -21 0 -13 -10 -17 -33 -19 -108 -3 -110
-7 -130 -24 -130 -8 0 -14 29 -19 90 -8 109 -24 163 -25 84 -1 -28 -4 -79 -7
-113 -6 -56 -9 -61 -31 -61 -20 0 -24 5 -23 28 1 15 2 66 1 115 -1 83 -2 87
-23 87 -14 0 -18 -4 -12 -9 5 -6 7 -37 6 -70 -4 -63 -15 -75 -52 -51 -12 8
-10 10 10 10 19 0 26 5 26 20 0 11 -4 20 -8 20 -4 0 -4 10 1 22 5 13 5 32 1
43 -4 11 -6 23 -3 27 2 5 35 8 74 8 l69 0 0 51 0 52 32 -7 c18 -3 35 -11 39
-17 3 -6 9 18 13 52 9 78 -2 89 -86 89 -33 0 -78 4 -101 9 -23 6 -54 12 -69
16 -16 3 -28 12 -28 21 0 11 -8 15 -28 13 -33 -4 -62 19 -59 48 1 17 9 20 58
22 53 2 58 0 62 -21 4 -20 4 -20 6 5 1 19 6 27 20 27 10 0 21 6 24 14 3 7 19
16 35 19 18 4 31 14 35 26 4 16 14 21 41 23 20 1 44 2 53 2 10 1 20 -9 24 -24
5 -19 7 -12 8 25 6 281 12 449 15 452 6 6 12 -1146 6 -1196 -5 -44 4 -78 24
-93 6 -4 5 -12 -1 -20 -6 -7 -9 -38 -7 -73 6 -90 2 -179 -12 -244 -4 -20 -7
-39 -6 -44 1 -4 -2 -7 -8 -7 -5 0 -12 -16 -16 -35 -7 -37 -15 -40 -74 -29 -38
8 -46 26 -65 149 -21 134 -27 159 -37 171 -5 8 -3 14 7 18 21 8 16 46 -9 69
-10 9 -14 17 -9 17 6 0 13 9 16 20 3 13 -1 21 -15 26 -11 3 -17 12 -14 20 4
10 -4 14 -29 14 -24 0 -35 5 -35 15 0 10 -11 15 -35 15 -32 0 -35 -2 -30 -23
9 -36 10 -186 1 -243 -6 -41 -12 -54 -33 -63 -21 -10 -31 -8 -59 8 -19 11 -41
18 -49 15 -8 -4 -17 1 -21 10 -3 9 -12 16 -18 16 -7 0 -19 11 -26 25 -17 31
-45 32 -55 3 -4 -13 -9 -30 -12 -38 -2 -8 -5 -24 -6 -35 -2 -21 -36 -47 -50
-38 -4 2 -14 -1 -22 -7 -16 -13 -35 -6 -35 13 0 19 -57 40 -87 32 -19 -4 -23
-9 -14 -18 14 -14 15 -41 1 -32 -5 3 -11 3 -11 -2 -3 -14 -6 -47 -10 -83 -2
-19 -8 -38 -14 -42 -5 -4 0 -8 12 -8 16 0 21 -4 17 -15 -4 -9 0 -15 10 -15 14
0 21 -13 14 -23 -2 -2 3 -11 10 -19 10 -13 10 -21 1 -42 -9 -19 -9 -30 -2 -37
14 -14 5 -39 -13 -39 -8 0 -14 -10 -14 -21 0 -19 2 -20 17 -8 15 13 15 12 5
-7 -11 -21 -11 -36 2 -66 4 -9 5 -22 1 -28 -3 -5 -1 -10 4 -10 6 0 11 -5 11
-11 0 -5 -4 -7 -10 -4 -6 3 -7 -1 -4 -9 3 -9 12 -16 20 -16 17 0 18 -16 2 -26
-7 -5 -8 -2 -3 7 6 11 5 11 -5 2 -7 -6 -10 -19 -7 -27 6 -14 112 -16 1057 -16
l1050 0 0 355 0 355 -135 0 -135 0 0 -71 c0 -39 -4 -68 -9 -65 -5 3 -12 -1
-15 -10 -3 -8 -19 -20 -36 -25 -16 -6 -30 -15 -30 -21 0 -14 -133 0 -142 15
-4 7 -8 8 -9 2 0 -5 -5 1 -9 15 -4 14 -8 73 -9 133 l-1 107 93 0 c58 0 121 -8
171 -20 43 -11 95 -20 115 -20 20 0 61 -7 91 -15 30 -8 56 -15 58 -15 1 0 2
144 2 319 l0 320 -42 5 c-24 3 -104 10 -178 16 -136 12 -178 20 -103 20 36 0
40 2 36 20 -3 11 -10 17 -15 14 -5 -3 -15 1 -21 11 -16 20 -47 10 -47 -16 0
-10 -4 -19 -10 -19 -5 0 -10 8 -10 18 0 14 -2 15 -10 2 -8 -12 -10 -9 -10 12
0 41 -10 58 -34 58 -17 0 -18 2 -6 10 12 8 11 10 -7 10 -21 0 -23 -5 -23 -50
0 -40 -3 -48 -15 -44 -8 4 -15 12 -15 20 0 8 -4 14 -10 14 -5 0 -10 13 -10 29
0 26 4 29 59 41 34 7 97 10 150 8 51 -3 94 -1 97 3 3 5 5 41 5 81 0 40 5 78
10 84 5 7 10 51 10 98 0 47 5 88 10 91 5 4 9 24 9 46 l0 39 80 0 c79 0 80 0
80 -25 0 -14 5 -25 10 -25 6 0 10 28 10 65 0 51 -3 65 -15 65 -12 0 -15 12
-13 53 l2 52 3 -48 c2 -26 8 -45 14 -42 5 4 9 248 9 627 0 548 -2 619 -15 608
-17 -14 -22 -5 -27 48 l-3 33 -107 -76 -108 -77 0 -53 c0 -38 -4 -54 -15 -59
-12 -4 -15 4 -15 44 l0 50 -66 -47 -65 -47 6 -42 c3 -25 1 -45 -5 -49 -6 -4
-10 11 -10 39 0 25 -4 47 -9 50 -10 6 -67 -20 -77 -35 -13 -22 5 -18 35 7 18
14 34 25 36 22 5 -5 -91 -78 -102 -78 -5 0 -1 5 7 10 8 5 10 10 5 10 -6 0 -11
124 -13 348 l-3 347 84 100 c47 55 110 127 141 160 l55 60 0 -360 c0 -503 -2
-456 19 -448 24 10 119 80 191 143 l61 53 0 828 0 829 -98 0 -99 0 -30 -37
c-16 -21 -37 -53 -47 -70 -19 -39 -26 -42 -19 -10 4 17 0 15 -16 -10 -11 -18
-23 -33 -27 -33 -6 0 23 50 68 118 l29 42 -121 -1 c-140 -1 -141 -2 -146 -103
-2 -33 -7 -63 -11 -67 -13 -13 1 124 15 149 13 22 12 22 -58 22 l-70 0 0 -190
c0 -104 -3 -190 -7 -190 -5 0 -8 86 -8 190 0 174 -1 190 -17 190 -16 0 -18
-13 -18 -127 0 -154 -9 -233 -25 -233 -7 0 -12 -21 -14 -57 -2 -63 -22 -91
-31 -45 -6 26 -6 26 -35 -22 -22 -38 -29 -61 -29 -109 -1 -39 -5 -62 -13 -64
-9 -3 -13 8 -14 34 l0 38 -25 -50 c-18 -35 -26 -65 -25 -100 0 -27 -4 -57 -9
-65 -7 -11 -10 -5 -10 25 l0 40 -30 -47 c-28 -45 -42 -117 -20 -103 13 8 13
-1 0 -26 -6 -10 -18 -19 -26 -19 -8 0 -13 4 -9 9 4 8 9 267 6 338 -2 38 -31
16 -31 -24 0 -20 4 -32 10 -28 6 3 10 2 10 -4 0 -5 -4 -13 -10 -16 -5 -3 -10
-20 -10 -36 0 -18 4 -28 10 -24 6 3 10 1 10 -4 0 -6 -5 -11 -11 -11 -7 0 -9
-34 -7 -100 2 -67 -1 -101 -8 -104 -6 -2 -14 -25 -16 -51 -3 -26 -11 -52 -18
-58 -10 -10 -11 -5 -7 21 8 41 -8 42 -22 0 -6 -18 -21 -42 -33 -55 -17 -18
-20 -31 -16 -67 4 -31 1 -49 -8 -57 -10 -8 -13 -2 -16 28 -4 40 -6 36 -23 -41
-5 -21 -9 -26 -15 -17 -10 18 -30 -17 -30 -53 0 -14 -4 -26 -10 -26 -6 0 -10
60 -10 159 0 118 -3 161 -12 164 -10 4 -10 6 0 6 6 1 12 9 12 20 0 10 7 35 15
54 8 20 15 62 15 92 0 67 0 67 103 222 78 118 81 122 110 116 l30 -6 -7 155
c-5 127 -4 157 8 167 7 6 16 26 20 43 3 17 15 38 26 45 11 8 18 18 15 23 -3 5
-1 11 5 15 5 3 10 12 10 19 0 9 -29 13 -113 15 l-113 2 -38 -98 c-46 -118 -89
-227 -105 -267 -6 -16 -14 -27 -16 -24 -3 2 27 87 65 189 38 101 70 187 70
191 0 4 -16 7 -35 6 -19 -1 -35 -5 -35 -9 0 -14 -31 -39 -48 -39 -14 0 -15 2
-3 9 12 8 12 12 2 25 -8 9 -17 16 -22 16 -14 0 -11 -154 3 -168 9 -9 9 -12 -1
-12 -7 0 -9 -4 -6 -10 9 -14 22 -12 22 3 0 6 3 22 7 35 4 12 4 22 -1 22 -4 0
-8 11 -8 24 0 13 4 22 9 19 4 -3 12 1 17 8 6 10 9 6 9 -14 0 -18 -4 -26 -11
-21 -7 4 -9 0 -6 -12 3 -11 0 -46 -7 -79 -9 -36 -14 -49 -15 -32 -1 15 -6 27
-11 27 -17 0 -29 -43 -18 -64 12 -21 12 -1136 0 -1136 -4 0 -5 175 -3 388 2
214 0 399 -4 411 -7 22 -8 22 -25 -15 -26 -54 -24 -40 2 26 17 42 22 76 22
148 0 50 4 92 8 92 4 0 2 13 -3 30 -16 45 -27 28 -26 -40 0 -34 -4 -65 -10
-71 -7 -7 -9 -2 -6 18 l5 28 -17 -23 c-11 -15 -14 -32 -10 -51 5 -23 2 -29
-13 -33 -15 -4 -18 -12 -14 -38 3 -21 1 -31 -6 -26 -13 8 -22 -17 -15 -43 3
-12 1 -21 -6 -21 -6 0 -11 -17 -11 -40 0 -22 -4 -40 -9 -40 -5 0 -11 -14 -15
-31 -3 -17 -10 -28 -15 -24 -10 6 -20 -31 -26 -100 -5 -67 -7 -71 -15 -45 -7
21 -8 18 -9 -18 -1 -26 -5 -41 -11 -37 -6 4 -10 -6 -10 -23 0 -37 -19 -92 -31
-92 -6 0 -9 -6 -8 -12 3 -25 -1 -39 -10 -34 -11 7 -21 -17 -21 -50 0 -13 -4
-24 -9 -24 -5 0 -12 -16 -15 -35 -4 -19 -12 -35 -18 -35 -5 0 -7 -7 -4 -16 3
-8 2 -13 -2 -10 -9 5 -38 -110 -34 -131 2 -7 -3 -13 -11 -13 -10 0 -13 -9 -11
-31 3 -23 0 -30 -10 -26 -9 4 -19 -12 -31 -53 -10 -34 -22 -57 -28 -53 -6 4
-8 -4 -5 -21 3 -14 2 -26 -2 -26 -4 0 -7 -11 -7 -25 0 -14 -7 -31 -16 -38 -8
-7 -18 -29 -21 -50 -4 -21 -11 -35 -16 -32 -5 3 -12 0 -16 -6 -3 -6 0 -15 7
-20 12 -7 12 -9 0 -9 -7 0 -11 -6 -7 -15 3 -8 1 -15 -4 -15 -9 0 -16 -18 -24
-64 -3 -16 -10 -34 -16 -40 -14 -13 -4 380 11 489 6 39 13 99 16 135 7 86 13
89 13 8 l0 -65 30 5 c30 4 30 5 30 67 0 68 22 145 45 158 10 5 15 25 16 60 1
77 20 121 52 125 l27 3 0 110 c0 124 20 184 64 195 23 5 23 8 29 186 4 100 7
227 8 282 0 56 4 110 9 121 6 13 9 -16 9 -83 1 -66 5 -101 11 -97 6 3 10 -4
10 -17 1 -22 1 -22 16 5 10 18 23 27 39 27 38 0 54 35 53 115 -1 39 2 85 6
103 l8 32 -354 -1 c-236 0 -343 -4 -323 -10z m1515 -269 c0 -5 -5 -10 -11 -10
-5 0 -7 5 -4 10 3 6 8 10 11 10 2 0 4 -4 4 -10z m40 -146 c0 -14 2 -15 17 -3
9 8 -6 -28 -32 -80 -38 -73 -51 -89 -56 -75 -17 43 -9 90 22 132 32 44 49 53
49 26z m-91 -81 c0 -25 -1 -25 -8 -8 -5 11 -7 23 -4 28 8 14 13 7 12 -20z m1
-365 c0 -182 -2 -329 -5 -327 -2 3 -5 121 -7 262 -2 237 -3 256 -18 242 -15
-14 -16 -11 -14 30 3 54 12 85 25 85 5 0 9 9 9 20 0 11 2 20 5 20 3 0 5 -149
5 -332z m-731 -470 c0 -89 -5 -170 -11 -181 -5 -10 -10 -39 -11 -63 -1 -24 -5
-44 -9 -44 -5 0 -8 6 -8 13 -1 27 -39 -60 -40 -91 0 -18 -4 -31 -9 -28 -16 10
-5 415 13 463 17 49 56 104 67 97 5 -2 8 -77 8 -166z m-220 83 c-6 -18 -13
-30 -15 -28 -2 2 1 18 7 36 6 18 13 30 15 28 2 -2 -1 -18 -7 -36z m948 -78
c-3 -10 -5 -2 -5 17 0 19 2 27 5 18 2 -10 2 -26 0 -35z m-981 0 c-8 -15 -15
-25 -16 -21 0 12 23 58 27 54 3 -2 -2 -17 -11 -33z m354 17 c0 -5 -2 -10 -4
-10 -3 0 -8 5 -11 10 -3 6 -1 10 4 10 6 0 11 -4 11 -10z m-291 -372 c0 -139
-4 -244 -8 -234 -11 28 -25 2 -17 -30 4 -14 2 -24 -4 -24 -5 0 -10 6 -10 13
-1 23 -31 -28 -42 -70 -6 -24 -13 -43 -17 -43 -3 0 -5 93 -3 207 3 187 6 216
27 288 22 73 57 145 70 145 3 0 5 -114 4 -252z m-150 138 c-11 -32 -23 -55
-25 -53 -3 2 5 30 17 61 11 32 23 55 25 53 3 -2 -5 -30 -17 -61z m442 11 c-10
-9 -11 -8 -5 6 3 10 9 15 12 12 3 -3 0 -11 -7 -18z m-14 -39 c-3 -8 -6 -5 -6
6 -1 11 2 17 5 13 3 -3 4 -12 1 -19z m640 -30 c-3 -8 -6 -5 -6 6 -1 11 2 17 5
13 3 -3 4 -12 1 -19z m-671 -14 c-4 -9 -9 -15 -11 -12 -3 3 -3 13 1 22 4 9 9
15 11 12 3 -3 3 -13 -1 -22z m-435 -21 c-12 -20 -14 -14 -5 12 4 9 9 14 11 11
3 -2 0 -13 -6 -23z m326 -25 c-3 -8 -6 -5 -6 6 -1 11 2 17 5 13 3 -3 4 -12 1
-19z m110 -190 c-2 -24 -4 -7 -4 37 0 44 2 63 4 43 2 -21 2 -57 0 -80z m270
61 c0 -26 -4 -42 -13 -46 -8 -3 -14 -10 -14 -15 0 -7 5 -6 14 1 19 16 17 -339
-3 -363 -12 -14 -12 -16 0 -11 10 4 15 -4 16 -25 2 -24 -8 -39 -50 -79 -51
-49 -52 -50 -22 -47 24 3 30 8 28 25 -2 12 6 25 18 32 19 10 20 8 18 -18 -2
-15 0 -34 5 -41 10 -16 12 -13 -50 -57 -47 -34 -49 -34 -52 -14 -4 24 20 44
52 44 11 0 21 6 23 13 3 6 0 12 -6 12 -6 0 -11 -5 -11 -11 0 -5 -4 -7 -10 -4
-5 3 -18 1 -29 -5 -19 -9 -20 -7 -17 26 2 25 11 43 32 61 l29 25 -32 -22 c-36
-24 -43 -18 -15 14 16 20 16 20 0 7 -17 -12 -18 -9 -18 39 0 30 3 50 7 47 3
-4 15 1 26 10 10 10 21 17 23 16 2 -2 4 -1 4 2 0 3 0 12 0 21 0 10 -7 7 -24
-12 -21 -26 -25 -27 -39 -12 -15 14 -15 17 -1 22 8 3 13 10 9 15 -3 5 8 17 24
27 16 10 31 28 34 41 4 23 3 23 -29 -8 -25 -24 -34 -28 -34 -17 0 28 17 62 44
90 15 14 23 29 18 32 -6 3 -17 -4 -25 -17 -8 -12 -33 -42 -56 -65 l-41 -44 0
48 c0 47 26 124 42 124 5 0 8 -10 7 -22 -1 -13 -1 -36 0 -53 2 -26 4 -27 10
-10 5 11 6 24 4 28 -3 4 1 15 9 24 11 14 11 16 -1 8 -11 -6 -13 -4 -7 10 4 10
2 21 -4 25 -6 4 4 23 26 48 19 23 34 48 31 55 -3 7 -9 0 -16 -15 -6 -16 -15
-28 -21 -28 -18 0 -11 16 22 46 17 16 27 23 23 15 -5 -9 -4 -12 3 -7 7 4 12
13 12 20 0 9 19 36 25 36 1 0 2 -18 2 -41z m312 -59 l-1 -60 -81 -71 c-82 -71
-82 -71 -85 -43 -3 20 3 33 20 45 13 10 46 39 74 66 27 26 41 41 30 33 -12 -9
-29 -22 -38 -29 -16 -12 -18 -11 -18 12 0 17 14 39 43 66 23 22 45 41 49 41 4
0 7 -27 7 -60z m-792 8 c-3 -7 -5 -2 -5 12 0 14 2 19 5 13 2 -7 2 -19 0 -25z
m880 -50 c-3 -8 -6 -5 -6 6 -1 11 2 17 5 13 3 -3 4 -12 1 -19z m-224 -67 l-28
-24 -3 23 c-3 17 4 31 25 47 l28 23 3 -22 c3 -15 -6 -31 -25 -47z m-446 -104
c-2 -23 -3 -1 -3 48 0 50 1 68 3 42 2 -26 2 -67 0 -90z m571 65 c-11 -13 -11
-14 0 -8 11 6 12 -12 8 -96 -3 -56 -7 -114 -8 -127 -3 -28 -28 -41 -28 -15 0
16 -1 16 -19 0 -11 -10 -25 -15 -32 -10 -7 4 -10 3 -5 -4 3 -6 1 -14 -5 -17
-5 -4 -9 -24 -8 -46 2 -21 0 -41 -4 -45 -4 -4 -7 13 -7 39 l0 45 -30 -30 c-23
-22 -30 -40 -32 -71 l-1 -42 -4 38 c-5 42 -9 44 -40 18 -16 -13 -24 -31 -25
-58 -1 -37 -1 -37 -5 -5 -5 36 -10 38 -38 18 -14 -10 -19 -26 -19 -52 1 -34 0
-35 -3 -6 -5 37 -13 40 -38 12 -13 -14 -16 -28 -11 -50 3 -19 2 -29 -4 -25 -6
3 -10 18 -10 32 l0 26 -25 -23 c-20 -19 -24 -30 -20 -51 4 -15 1 -30 -4 -34
-7 -3 -10 3 -10 17 1 13 0 29 -2 37 -4 13 78 79 215 176 l56 39 0 126 0 126
29 22 c27 20 30 20 34 4 4 -13 5 -12 6 5 1 12 21 39 49 62 l47 41 3 -26 c2
-14 -3 -33 -10 -42z m-969 -84 c-3 -99 -18 -134 -18 -43 -1 66 6 115 16 115 2
0 3 -33 2 -72z m-54 -155 c-3 -24 -10 -43 -15 -43 -5 0 -7 -7 -4 -15 4 -10 0
-15 -15 -15 -14 0 -21 -6 -21 -19 0 -10 -7 -32 -15 -47 l-15 -29 -1 55 c-4
139 -1 157 27 201 56 89 59 89 62 18 2 -35 0 -83 -3 -106z m596 92 c-32 -36
-36 -48 -12 -40 16 5 21 2 21 -12 -1 -17 -32 -63 -43 -63 -3 0 -5 32 -4 72 0
58 5 77 21 96 l21 23 7 -28 c5 -20 3 -33 -11 -48z m606 -12 c-3 -10 -5 -4 -5
12 0 17 2 24 5 18 2 -7 2 -21 0 -30z m-1401 -20 c-8 -15 -15 -25 -16 -21 0 12
23 58 27 54 3 -2 -2 -17 -11 -33z m651 -165 c-2 -35 -3 -9 -3 57 0 66 1 94 3
63 2 -32 2 -86 0 -120z m144 43 c-8 -13 -8 -27 -3 -38 11 -20 1 -53 -21 -71
-12 -10 -16 -10 -20 1 -3 8 -2 20 3 27 4 7 5 31 2 53 -4 32 -1 43 13 54 25 17
40 2 26 -26z m-543 -11 c-13 -22 -24 -35 -26 -30 -3 8 37 70 45 70 2 0 -7 -18
-19 -40z m-330 -45 c-17 -42 -32 -74 -34 -72 -3 2 3 20 11 40 8 21 22 53 29
72 8 19 17 35 20 35 2 0 -9 -34 -26 -75z m789 -47 c-2 -13 -4 -3 -4 22 0 25 2
35 4 23 2 -13 2 -33 0 -45z m-105 -76 l-3 -101 -55 -41 -54 -41 0 98 0 97 52
53 c29 29 54 49 58 44 3 -5 4 -54 2 -109z m188 50 c0 -11 -22 -32 -32 -32 -5
0 -4 9 2 20 11 20 30 28 30 12z m-78 -72 c-2 -40 0 -70 5 -70 5 0 10 -7 10
-16 0 -14 -2 -14 -14 2 -14 20 -19 154 -5 154 5 0 7 -31 4 -70z m-839 45 c-3
-9 -8 -14 -10 -11 -3 3 -2 9 2 15 9 16 15 13 8 -4z m924 -12 c0 -10 -7 -26
-16 -36 -9 -11 -16 -24 -17 -30 -3 -34 -5 -38 -15 -31 -7 4 -7 10 -1 16 6 6 8
17 5 24 -3 8 2 17 11 20 9 3 16 13 16 21 0 13 -3 13 -15 3 -8 -7 -15 -8 -15
-3 0 6 10 15 23 21 12 6 22 11 23 11 0 1 1 -7 1 -16z m-393 -115 c-3 -7 -22
-26 -42 -42 l-37 -30 40 42 c42 45 48 49 39 30z m196 -52 c0 -36 -4 -46 -20
-51 -11 -3 -20 -12 -20 -18 0 -7 -9 -18 -20 -25 -13 -8 -20 -24 -21 -45 l-1
-32 -7 30 c-6 29 -7 29 -20 10 -11 -17 -12 -17 -7 -2 3 10 6 36 6 57 0 34 6
42 53 78 28 23 53 41 55 41 1 1 2 -19 2 -43z m157 22 c-3 -8 -6 -5 -6 6 -1 11
2 17 5 13 3 -3 4 -12 1 -19z m-30 -20 c-3 -8 -6 -5 -6 6 -1 11 2 17 5 13 3 -3
4 -12 1 -19z m-316 -21 c-10 -9 -11 -8 -5 6 3 10 9 15 12 12 3 -3 0 -11 -7
-18z m906 -19 c-3 -7 -5 -2 -5 12 0 14 2 19 5 13 2 -7 2 -19 0 -25z m-966 -31
l-31 -32 0 28 c0 24 8 32 26 25 3 -2 10 6 16 17 8 14 13 16 16 6 2 -7 -10 -27
-27 -44z m296 21 c-3 -8 -6 -5 -6 6 -1 11 2 17 5 13 3 -3 4 -12 1 -19z m-234
-12 c-3 -13 -22 -38 -43 -55 -45 -36 -50 -37 -43 -12 6 22 53 70 53 54 0 -6
-7 -14 -16 -17 -9 -4 -14 -9 -11 -12 9 -9 48 16 41 27 -3 5 0 16 6 24 17 20
18 19 13 -9z m7 -60 c0 -7 -8 -20 -17 -27 -15 -12 -16 -12 -10 4 4 10 7 23 7
28 0 5 5 9 10 9 6 0 10 -6 10 -14z m140 4 c0 -5 -5 -10 -11 -10 -5 0 -7 5 -4
10 3 6 8 10 11 10 2 0 4 -4 4 -10z m-207 -67 c-15 -12 -30 -20 -32 -17 -3 3 1
9 8 13 8 5 10 14 6 21 -5 9 -4 11 4 6 6 -4 14 0 17 9 6 13 8 14 15 3 6 -9 0
-20 -18 -35z m964 15 c-3 -7 -5 -2 -5 12 0 14 2 19 5 13 2 -7 2 -19 0 -25z
m-867 14 c0 -5 -11 -14 -25 -20 -19 -9 -25 -19 -25 -42 0 -16 -4 -30 -9 -30
-5 0 -7 10 -3 22 l5 22 -30 -22 c-39 -28 -52 -28 -28 -2 16 18 103 80 112 80
2 0 3 -4 3 -8z m234 -34 c-3 -4 3 -5 13 -2 16 5 16 4 -1 -10 -27 -22 -37 -20
-32 7 3 12 5 27 5 32 1 6 5 3 10 -5 6 -8 7 -18 5 -22z m-200 7 c-4 -8 -8 -15
-10 -15 -2 0 -4 7 -4 15 0 8 4 15 10 15 5 0 7 -7 4 -15z m164 -33 c2 -34 0
-43 -8 -32 -14 22 -12 80 4 80 1 0 2 -21 4 -48z m1155 28 c3 -11 1 -20 -4 -20
-5 0 -9 9 -9 20 0 11 2 20 4 20 2 0 6 -9 9 -20z m-1673 -217 c-23 -30 -22 -35
-20 87 1 76 5 98 18 108 16 12 17 6 20 -78 2 -79 0 -94 -18 -117z m1198 -1010
c1 -2 9 -3 17 -3 13 0 15 -36 15 -265 l0 -264 30 -16 c16 -8 33 -14 37 -13 17
4 53 -14 53 -28 0 -8 3 -14 8 -14 4 0 20 -11 36 -25 16 -14 33 -25 38 -25 15
0 8 -21 -9 -27 -10 -4 -29 -15 -42 -25 -26 -20 -41 -23 -41 -8 0 6 10 10 23
11 21 0 21 1 2 8 -11 5 -25 6 -32 4 -6 -3 -23 3 -38 13 -32 21 -39 14 -56 -53
-6 -24 -15 -43 -20 -43 -5 0 -9 -11 -9 -25 0 -14 -4 -25 -9 -25 -5 0 -11 -9
-14 -20 -8 -33 -32 -23 -55 23 -36 73 -89 120 -143 131 -85 15 -98 19 -94 26
2 4 -5 17 -16 28 -12 13 -15 22 -7 22 7 0 4 6 -6 13 -16 12 -16 14 3 39 12 14
18 33 15 42 -8 21 34 37 109 42 31 2 65 7 75 12 9 4 29 8 45 7 32 -1 33 2 7
35 -11 14 -20 33 -20 43 0 27 -19 57 -35 57 -8 0 -15 5 -15 10 0 6 7 10 16 10
8 0 13 4 10 9 -3 5 -6 55 -6 112 -1 57 -3 123 -6 147 -5 36 -10 42 -30 42 -13
0 -24 5 -24 10 0 6 32 10 75 10 l75 0 0 50 c0 28 4 50 10 50 5 0 7 12 5 28 -4
22 -10 91 -14 173 -1 13 -17 18 -78 23 -298 26 -400 38 -425 50 -15 8 -28 10
-28 5 0 -6 -5 -7 -11 -3 -6 3 -8 17 -5 29 3 13 1 27 -5 30 -17 11 -25 -5 -9
-16 13 -9 13 -10 0 -6 -19 5 -15 107 4 122 7 6 16 22 20 38 4 18 13 27 27 27
22 0 40 31 21 38 -30 10 -7 23 36 20 39 -3 47 0 44 14 -4 27 14 29 27 2 8 -19
8 -30 -2 -47 -10 -17 -11 -39 -4 -94 8 -68 11 -73 33 -73 22 0 24 4 24 50 l0
50 34 0 c18 0 61 3 95 6 l61 7 0 48 c0 46 2 49 25 49 23 0 25 -3 25 -49 0 -28
5 -53 10 -56 6 -3 10 -28 10 -56 l0 -49 34 0 33 0 6 153 c3 83 5 214 3 289 -1
76 1 132 6 125 4 -6 9 26 10 73 2 47 5 -187 8 -520 3 -333 6 -606 8 -607z
m407 1187 c-3 -5 -11 -10 -16 -10 -6 0 -7 5 -4 10 3 6 11 10 16 10 6 0 7 -4 4
-10z m-95 -30 c0 -5 -5 -10 -11 -10 -5 0 -7 5 -4 10 3 6 8 10 11 10 2 0 4 -4
4 -10z m-1323 -37 c-3 -10 -5 -4 -5 12 0 17 2 24 5 18 2 -7 2 -21 0 -30z
m1263 27 c0 -5 -8 -10 -17 -10 -15 0 -16 2 -3 10 19 12 20 12 20 0z m-933 -32
c-3 -7 -5 -2 -5 12 0 14 2 19 5 13 2 -7 2 -19 0 -25z m-357 13 c0 -5 -7 -12
-16 -15 -14 -5 -15 -4 -4 9 14 17 20 19 20 6z m1250 -1 c0 -5 -8 -10 -17 -10
-15 0 -16 2 -3 10 19 12 20 12 20 0z m-1290 -30 c0 -5 -5 -10 -11 -10 -5 0 -7
5 -4 10 3 6 8 10 11 10 2 0 4 -4 4 -10z m1187 -6 c-3 -3 -12 -4 -19 -1 -8 3
-5 6 6 6 11 1 17 -2 13 -5z m126 -102 c-2 -15 -5 -33 -5 -39 -1 -7 -5 -13 -9
-13 -5 0 -5 52 1 100 0 3 4 -1 9 -8 4 -8 6 -26 4 -40z m38 -79 c1 -23 -2 -167
-4 -170 -1 -1 -35 -5 -75 -8 l-73 -8 3 89 3 88 45 12 c68 18 100 17 101 -3z
m-1384 -138 c0 -17 -13 -20 -21 -6 -4 5 0 12 6 14 7 3 13 6 14 6 0 1 1 -6 1
-14z m-37 -15 c0 -5 -12 -10 -27 -9 -25 0 -26 1 -8 9 27 12 35 12 35 0z m-190
-52 c0 -10 -6 -18 -14 -18 -8 0 -16 -5 -18 -11 -5 -14 -38 0 -38 16 0 8 9 16
19 20 13 4 18 12 14 22 -5 13 -3 13 16 2 11 -8 21 -22 21 -31z m88 30 c-5 -15
-66 -29 -74 -17 -6 10 31 27 59 28 11 1 17 -4 15 -11z m1405 -59 c12 0 41 0
65 1 l42 2 0 -80 c0 -75 -1 -80 -20 -75 -13 4 -20 0 -20 -10 0 -21 -29 -30
-36 -12 -4 9 -19 15 -35 15 l-29 0 1 98 c1 53 3 89 6 80 2 -10 14 -18 26 -19z
m-1493 -38 c0 -52 -16 -62 -23 -13 -5 40 -1 52 14 52 5 0 9 -18 9 -39z m-40
-16 c0 -38 -17 -38 -18 1 -1 20 3 32 8 29 6 -3 10 -17 10 -30z m191 -282 c-5
-10 -9 -34 -9 -53 0 -52 -4 -59 -11 -20 -9 48 -2 90 15 90 11 0 12 -5 5 -17z
m-27 -118 c8 -32 -2 -72 -18 -72 -6 0 -20 11 -29 24 -17 22 -17 23 3 23 15 0
20 6 20 25 0 14 4 25 9 25 5 0 12 -11 15 -25z m56 -66 c0 -11 -4 -17 -10 -14
-5 3 -10 13 -10 21 0 8 5 14 10 14 6 0 10 -9 10 -21z m168 14 c-16 -2 -40 -2
-55 0 -16 2 -3 4 27 4 30 0 43 -2 28 -4z m675 -290 c-13 -2 -35 -2 -50 0 -16
2 -5 4 22 4 28 0 40 -2 28 -4z m610 -20 c-7 -2 -21 -2 -30 0 -10 3 -4 5 12 5
17 0 24 -2 18 -5z m-686 -155 c-3 -8 -6 -5 -6 6 -1 11 2 17 5 13 3 -3 4 -12 1
-19z m74 -17 c16 -13 29 -16 40 -10 15 7 28 7 79 -6 8 -2 18 -4 23 -4 4 -1 7
-8 7 -17 0 -13 -6 -15 -27 -9 -16 3 -35 13 -44 21 -21 19 -35 18 -19 -1 10
-12 10 -15 0 -15 -7 0 -10 -7 -6 -15 3 -8 1 -15 -4 -15 -8 0 -14 19 -12 40 0
3 -11 6 -25 5 -15 0 -31 9 -40 23 -19 27 -4 29 28 3z m-1041 -205 c0 -2 -7 -7
-16 -10 -8 -3 -12 -2 -9 4 6 10 25 14 25 6z m1490 -190 c0 -3 -4 -8 -10 -11
-5 -3 -10 -1 -10 4 0 6 5 11 10 11 6 0 10 -2 10 -4z"/>
<path d="M4017 3202 c-19 -21 -22 -32 -7 -32 6 0 10 7 10 16 0 10 6 14 14 11
10 -4 13 -1 9 9 -7 18 -7 18 -26 -4z"/>
<path d="M3935 3110 c-3 -5 1 -10 9 -10 9 0 16 5 16 10 0 6 -4 10 -9 10 -6 0
-13 -4 -16 -10z"/>
<path d="M3935 3080 c-3 -5 -1 -10 4 -10 6 0 11 5 11 10 0 6 -2 10 -4 10 -3 0
-8 -4 -11 -10z"/>
<path d="M4016 2855 c-19 -14 -19 -15 6 -15 15 0 28 -6 31 -12 2 -8 8 -9 13
-4 5 5 4 11 -3 13 -7 3 -13 11 -13 19 0 18 -10 17 -34 -1z"/>
<path d="M4331 3072 c-19 -15 -49 -40 -65 -56 -30 -27 -30 -28 -4 -11 29 18
117 95 108 95 -3 -1 -20 -13 -39 -28z"/>
<path d="M4369 3033 c-13 -16 -12 -17 4 -4 9 7 17 15 17 17 0 8 -8 3 -21 -13z"/>
<path d="M4329 3003 c-13 -16 -12 -17 4 -4 9 7 17 15 17 17 0 8 -8 3 -21 -13z"/>
<path d="M4283 2970 c-11 -16 -10 -18 2 -14 8 4 15 12 15 20 0 19 -3 18 -17
-6z"/>
<path d="M4355 2960 c-3 -6 1 -7 9 -4 18 7 21 14 7 14 -6 0 -13 -4 -16 -10z"/>
<path d="M4316 2937 c-10 -7 -32 -25 -50 -41 -26 -24 -27 -27 -6 -15 14 7 28
12 33 11 4 -1 7 3 7 9 0 6 10 19 23 30 25 21 22 24 -7 6z"/>
<path d="M3942 2982 c-11 -25 -11 -25 4 -10 9 9 15 21 13 27 -2 6 -10 -2 -17
-17z"/>
<path d="M3930 2770 c0 -5 5 -10 10 -10 6 0 10 5 10 10 0 6 -4 10 -10 10 -5 0
-10 -4 -10 -10z"/>
<path d="M3926 2724 c-5 -14 -4 -15 9 -4 17 14 19 20 6 20 -5 0 -12 -7 -15
-16z"/>
<path d="M290 5090 c6 -11 13 -20 16 -20 2 0 0 9 -6 20 -6 11 -13 20 -16 20
-2 0 0 -9 6 -20z"/>
<path d="M320 5040 c6 -11 13 -20 16 -20 2 0 0 9 -6 20 -6 11 -13 20 -16 20
-2 0 0 -9 6 -20z"/>
<path d="M2264 5002 c5 -47 -3 -48 -19 -1 l-10 29 -80 -81 -80 -81 90 5 c52 3
91 10 93 16 2 6 8 9 13 5 11 -7 11 58 -1 111 l-9 40 3 -43z m3 -84 c-3 -7 -5
-2 -5 12 0 14 2 19 5 13 2 -7 2 -19 0 -25z"/>
<path d="M2933 4961 c-1 -73 0 -80 20 -85 32 -8 137 -7 137 2 0 4 -35 42 -77
84 l-78 78 -2 -79z"/>
<path d="M2912 5010 c0 -14 2 -19 5 -12 2 6 2 18 0 25 -3 6 -5 1 -5 -13z"/>
<path d="M2901 4934 c0 -11 3 -14 6 -6 3 7 2 16 -1 19 -3 4 -6 -2 -5 -13z"/>
<path d="M1535 4780 c3 -5 8 -10 11 -10 2 0 4 5 4 10 0 6 -5 10 -11 10 -5 0
-7 -4 -4 -10z"/>
<path d="M1523 4683 c9 -2 23 -2 30 0 6 3 -1 5 -18 5 -16 0 -22 -2 -12 -5z"/>
<path d="M4110 4590 c-8 -5 -12 -11 -9 -14 3 -3 14 1 25 9 21 16 8 20 -16 5z"/>
<path d="M1440 4562 c0 -18 12 -42 21 -42 14 0 10 26 -6 40 -9 8 -15 8 -15 2z"/>
<path d="M1500 4516 c0 -56 7 -65 48 -60 50 6 53 14 5 14 -38 0 -40 1 -41 32
0 18 5 36 11 40 8 5 6 8 -5 8 -14 0 -18 -8 -18 -34z"/>
<path d="M2300 4247 c0 -2 14 -16 31 -33 l30 -29 -10 27 c-7 19 -7 28 2 32 7
2 -3 5 -20 5 -18 1 -33 0 -33 -2z"/>
<path d="M2182 4124 l-103 -114 74 0 c57 0 76 4 81 15 3 8 11 15 17 15 8 0 8
-4 -1 -15 -11 -13 -8 -15 16 -15 35 0 40 4 87 56 l37 42 -53 64 -53 65 -102
-113z"/>
<path d="M2854 4187 c-59 -78 -59 -78 -6 -129 l47 -46 100 -1 100 -1 -35 31
c-19 17 -26 25 -15 18 18 -13 19 -13 6 3 -7 10 -17 16 -21 13 -5 -3 -24 16
-43 42 -20 27 -50 62 -69 80 l-33 32 -31 -42z"/>
<path d="M1819 3963 c3 -21 6 -30 9 -20 6 29 16 19 35 -32 12 -35 17 -80 17
-161 0 -109 1 -112 18 -97 10 10 26 17 36 17 15 0 16 10 12 90 -2 50 0 90 5
90 5 0 9 -39 9 -87 0 -49 7 -110 15 -137 10 -33 15 -93 15 -183 0 -93 3 -132
11 -128 6 4 10 21 9 39 -3 56 -1 63 15 42 8 -11 15 -41 15 -67 0 -26 4 -50 9
-53 16 -11 34 -108 41 -231 l7 -120 1 120 c0 66 3 127 6 135 3 8 7 44 9 80 2
41 4 22 5 -50 2 -105 12 -184 25 -197 3 -2 15 0 26 7 19 10 21 8 22 -17 2 -32
4 -45 18 -127 11 -63 18 -77 25 -55 2 8 7 21 9 29 3 8 6 -30 8 -85 1 -73 4
-88 8 -55 4 33 8 40 14 27 4 -10 7 -27 7 -38 0 -41 149 -14 189 35 9 11 4 15
-20 20 -17 3 -44 6 -60 6 -16 0 -29 5 -29 11 0 7 12 9 35 5 19 -4 35 -3 34 1
-4 22 2 34 14 27 10 -6 10 -4 0 7 -19 19 -16 34 3 18 14 -11 18 -10 31 6 13
19 11 20 -59 26 -40 3 -62 6 -48 7 76 6 89 32 17 32 -54 0 -88 19 -37 21 19 1
39 1 43 0 5 -1 6 2 3 7 -3 5 10 27 29 49 l35 41 -33 6 c-17 4 -79 13 -137 20
l-105 12 88 5 88 5 39 45 c55 62 52 69 -25 69 -72 0 -84 13 -32 35 43 18 104
81 85 88 -10 4 -10 8 -1 14 29 20 -9 31 -137 40 -106 8 -120 10 -62 12 66 1
75 3 100 30 43 46 94 112 91 116 -9 8 -125 9 -138 1 -10 -6 -12 -5 -7 2 5 9
-20 12 -91 14 -54 0 -82 3 -63 4 83 8 172 29 177 41 3 7 11 13 19 13 7 0 16
11 20 25 3 14 9 23 14 20 11 -7 29 36 32 83 3 41 3 42 -29 42 -50 0 -51 20 -1
21 24 0 37 3 31 6 -7 2 -13 18 -13 33 0 27 -3 29 -47 33 l-48 3 51 2 50 2 -4
58 c-2 31 -5 59 -7 61 -7 6 -279 20 -415 21 l-136 0 5 -37z m611 -1226 c0 -2
-10 -12 -22 -23 l-23 -19 19 23 c18 21 26 27 26 19z"/>
<path d="M2360 3405 l-34 -35 36 0 c31 0 35 3 31 20 -3 12 1 22 11 26 15 6 13
24 -3 24 -4 0 -22 -16 -41 -35z"/>
<path d="M103 3385 c-9 -24 1 -27 15 -5 8 13 8 20 2 20 -6 0 -13 -7 -17 -15z"/>
<path d="M2816 3385 c4 -8 11 -15 16 -15 6 0 5 6 -2 15 -7 8 -14 15 -16 15 -2
0 -1 -7 2 -15z"/>
<path d="M4752 3189 c-23 -17 -42 -33 -42 -35 0 -3 20 9 45 27 40 29 51 39 42
39 -2 0 -22 -14 -45 -31z"/>
<path d="M2395 3090 c-18 -20 -18 -20 8 -20 28 0 32 6 19 28 -7 9 -13 8 -27
-8z"/>
<path d="M2710 2994 c0 -6 14 -23 30 -39 17 -16 30 -24 30 -19 0 6 -13 23 -30
39 -16 16 -30 24 -30 19z"/>
<path d="M2192 2800 c0 -14 2 -19 5 -12 2 6 2 18 0 25 -3 6 -5 1 -5 -13z"/>
<path d="M3041 2774 c0 -11 3 -14 6 -6 3 7 2 16 -1 19 -3 4 -6 -2 -5 -13z"/>
<path d="M2745 2690 c3 -5 11 -10 16 -10 6 0 7 5 4 10 -3 6 -11 10 -16 10 -6
0 -7 -4 -4 -10z"/>
<path d="M2280 2651 c0 -10 6 -21 14 -24 9 -4 17 -29 22 -64 6 -47 9 -53 15
-33 7 24 7 24 8 2 1 -30 27 -39 51 -17 11 10 23 15 27 12 3 -4 15 0 25 10 17
15 18 15 18 0 0 -10 5 -17 10 -17 16 0 12 22 -7 36 -10 7 -29 14 -43 14 -24 1
-24 2 -4 10 12 5 25 14 29 20 6 9 2 9 -13 1 -32 -17 -32 -13 -2 19 18 19 34
28 44 24 9 -3 16 -2 16 3 0 6 -34 13 -77 17 -121 10 -133 9 -133 -13z m105
-51 c-3 -5 -12 -10 -18 -10 -7 0 -6 4 3 10 19 12 23 12 15 0z m2 -26 c-3 -3
-12 -4 -19 -1 -8 3 -5 6 6 6 11 1 17 -2 13 -5z"/>
<path d="M2252 2640 c0 -14 2 -19 5 -12 2 6 2 18 0 25 -3 6 -5 1 -5 -13z"/>
<path d="M3131 2574 c0 -11 3 -14 6 -6 3 7 2 16 -1 19 -3 4 -6 -2 -5 -13z"/>
<path d="M2680 2555 c0 -2 9 -9 20 -15 16 -9 18 -8 14 5 -5 13 -34 22 -34 10z"/>
<path d="M2395 2510 c-3 -5 1 -10 9 -10 9 0 16 5 16 10 0 6 -4 10 -9 10 -6 0
-13 -4 -16 -10z"/>
<path d="M2435 2510 c-3 -5 -1 -10 4 -10 6 0 11 5 11 10 0 6 -2 10 -4 10 -3 0
-8 -4 -11 -10z"/>
<path d="M2350 2460 c0 -31 6 -32 59 -7 19 9 25 9 28 0 6 -16 23 -17 23 -2 0
20 -34 38 -72 39 -35 0 -38 -2 -38 -30z"/>
<path d="M2374 2414 c3 -9 6 -17 6 -20 0 -6 73 7 90 17 11 6 7 9 -15 9 -16 1
-43 3 -58 5 -22 3 -27 0 -23 -11z"/>
<path d="M2270 2379 c0 -4 7 -22 15 -40 8 -19 14 -27 14 -19 0 14 -28 72 -29
59z"/>
<path d="M2380 2350 c0 -31 0 -31 28 -16 15 8 36 17 46 20 25 8 19 12 -31 20
-43 6 -43 6 -43 -24z m25 0 c3 -5 1 -10 -4 -10 -6 0 -11 5 -11 10 0 6 2 10 4
10 3 0 8 -4 11 -10z"/>
<path d="M2758 2372 c-37 -4 -35 -17 3 -36 24 -12 28 -12 20 -2 -9 11 -9 15 0
18 23 8 4 23 -23 20z"/>
<path d="M2274 2278 c6 -23 12 -34 14 -24 5 23 -6 66 -17 66 -4 0 -3 -19 3
-42z"/>
<path d="M2408 2303 c6 -2 18 -2 25 0 6 3 1 5 -13 5 -14 0 -19 -2 -12 -5z"/>
<path d="M2721 2307 c10 -9 59 -17 59 -9 0 4 -14 9 -32 10 -18 2 -30 1 -27 -1z"/>
<path d="M2408 2263 c7 -3 16 -2 19 1 4 3 -2 6 -13 5 -11 0 -14 -3 -6 -6z"/>
<path d="M2407 2216 c3 -13 16 -29 29 -35 21 -9 24 -8 24 8 0 16 7 19 38 19
20 0 39 1 42 2 17 8 90 7 90 -2 0 -8 18 -6 57 9 6 3 18 -8 27 -24 l15 -28 1
25 c0 19 2 22 10 10 10 -17 15 -14 24 17 l7 22 -184 0 -184 1 4 -24z"/>
<path d="M2104 1669 c-1 -32 3 -56 7 -53 5 3 9 1 9 -4 0 -5 9 -12 20 -15 17
-4 20 0 20 30 0 29 -3 33 -14 24 -11 -9 -15 -4 -20 28 -9 61 -21 56 -22 -10z"/>
<path d="M3019 1719 c-1 -2 -2 -26 -3 -52 -2 -34 0 -45 8 -37 6 6 9 27 7 48
-2 32 -9 54 -12 41z"/>
<path d="M3670 1620 c0 -5 5 -10 10 -10 6 0 10 5 10 10 0 6 -4 10 -10 10 -5 0
-10 -4 -10 -10z"/>
<path d="M3324 1595 c-4 -8 -10 -12 -15 -9 -5 3 -9 0 -9 -5 0 -18 19 -12 30 9
6 11 8 20 5 20 -3 0 -8 -7 -11 -15z"/>
<path d="M3161 1584 c0 -11 3 -14 6 -6 3 7 2 16 -1 19 -3 4 -6 -2 -5 -13z"/>
<path d="M27 1570 c-3 -13 0 -20 9 -20 15 0 19 26 5 34 -5 3 -11 -3 -14 -14z"/>
<path d="M3746 1575 c-3 -8 -1 -15 4 -15 6 0 10 7 10 15 0 8 -2 15 -4 15 -2 0
-6 -7 -10 -15z"/>
<path d="M371 1544 c0 -11 3 -14 6 -6 3 7 2 16 -1 19 -3 4 -6 -2 -5 -13z"/>
<path d="M2971 1414 c0 -11 3 -14 6 -6 3 7 2 16 -1 19 -3 4 -6 -2 -5 -13z"/>
<path d="M2213 1394 c-17 -18 -16 -34 1 -34 20 0 29 17 19 34 -7 12 -10 12
-20 0z"/>
<path d="M3300 1136 c0 -2 7 -6 15 -10 8 -3 15 -1 15 4 0 6 -7 10 -15 10 -8 0
-15 -2 -15 -4z"/>
<path d="M1944 1093 c1 -35 20 -33 24 2 2 16 -2 25 -11 25 -9 0 -14 -10 -13
-27z"/>
<path d="M3205 1080 c-3 -5 -1 -10 4 -10 6 0 11 5 11 10 0 6 -2 10 -4 10 -3 0
-8 -4 -11 -10z"/>
<path d="M1815 1050 c-3 -5 1 -10 10 -10 9 0 13 5 10 10 -3 6 -8 10 -10 10 -2
0 -7 -4 -10 -10z"/>
<path d="M1913 1043 c0 -7 6 -13 14 -13 9 0 13 -10 11 -30 -1 -17 -8 -30 -16
-30 -7 0 -11 -4 -7 -9 3 -5 1 -12 -4 -16 -6 -3 -7 -15 -2 -28 4 -12 6 -28 3
-36 -3 -9 0 -11 9 -6 11 6 12 5 2 -6 -19 -20 -15 -39 8 -39 16 0 19 4 14 20
-4 12 -2 26 3 33 6 7 13 46 17 88 l6 77 -29 4 c-19 3 -29 0 -29 -9z"/>
<path d="M1915 1000 c-3 -5 -1 -10 4 -10 6 0 11 5 11 10 0 6 -2 10 -4 10 -3 0
-8 -4 -11 -10z"/>
<path d="M1380 805 c0 -54 14 -73 27 -37 3 9 13 25 21 35 14 15 13 17 -9 18
-13 0 -18 3 -11 6 20 8 14 33 -8 33 -18 0 -20 -7 -20 -55z"/>
<path d="M3220 840 c0 -5 7 -7 15 -4 8 4 15 8 15 10 0 2 -7 4 -15 4 -8 0 -15
-4 -15 -10z"/>
</g>
</svg>
